<svg id="svg" version="1.1" xmlns="http://www.w3.org/2000/svg" xmlns:xlink="http://www.w3.org/1999/xlink" width="400" height="400" viewBox="0, 0, 400,400"><g id="svgg"><path id="path0" d="M189.400 41.652 C 187.640 42.080,184.276 42.772,181.925 43.190 C 179.574 43.607,177.234 44.210,176.725 44.529 C 176.216 44.848,174.552 45.515,173.026 46.012 C 171.500 46.508,169.700 47.230,169.026 47.616 C 168.352 48.002,167.395 48.438,166.900 48.586 C 166.405 48.733,165.082 49.472,163.960 50.227 C 162.838 50.982,161.690 51.600,161.409 51.600 C 161.128 51.600,160.673 51.871,160.398 52.202 C 160.123 52.534,158.436 53.828,156.649 55.078 C 152.757 57.801,146.508 63.930,143.678 67.800 C 142.551 69.340,141.179 71.158,140.628 71.840 C 140.077 72.522,139.448 73.548,139.231 74.119 C 139.014 74.690,138.288 75.914,137.618 76.839 C 136.948 77.763,136.400 78.776,136.400 79.089 C 136.400 79.402,135.970 80.410,135.445 81.329 C 134.920 82.248,134.172 83.990,133.783 85.200 C 133.394 86.410,132.758 88.030,132.369 88.800 C 131.980 89.570,131.471 91.460,131.238 93.000 C 131.005 94.540,130.361 97.578,129.807 99.751 C 128.259 105.826,128.326 115.902,129.957 122.400 C 130.593 124.930,131.236 127.921,131.387 129.048 C 131.537 130.174,131.937 131.614,132.274 132.248 C 132.612 132.881,133.312 134.629,133.831 136.132 C 134.350 137.634,135.140 139.455,135.587 140.179 C 136.034 140.902,136.400 141.743,136.401 142.047 C 136.401 142.351,137.121 143.659,138.001 144.954 C 138.880 146.249,139.600 147.462,139.600 147.651 C 139.600 147.839,140.185 148.775,140.900 149.731 C 141.615 150.686,142.740 152.245,143.400 153.195 C 144.450 154.706,145.559 156.024,148.040 158.708 C 150.493 161.361,157.999 167.600,158.739 167.600 C 158.939 167.600,159.338 167.885,159.627 168.233 C 159.916 168.581,161.164 169.376,162.400 170.000 C 163.636 170.624,164.884 171.419,165.173 171.767 C 165.462 172.115,165.933 172.400,166.220 172.400 C 166.507 172.400,167.938 173.023,169.400 173.785 C 170.861 174.547,172.990 175.436,174.129 175.760 C 185.768 179.074,187.238 181.098,178.950 182.401 C 177.438 182.639,175.300 183.161,174.200 183.561 C 173.100 183.961,171.153 184.407,169.874 184.551 C 168.594 184.695,166.663 185.261,165.582 185.809 C 164.502 186.357,162.668 187.003,161.509 187.246 C 160.349 187.489,158.833 188.031,158.140 188.451 C 157.448 188.871,155.854 189.568,154.600 190.000 C 153.346 190.432,151.752 191.125,151.060 191.541 C 150.367 191.957,149.295 192.416,148.679 192.562 C 148.062 192.707,146.836 193.348,145.955 193.986 C 145.074 194.624,143.837 195.260,143.204 195.399 C 142.572 195.538,141.829 195.925,141.552 196.258 C 141.275 196.592,140.015 197.387,138.753 198.024 C 137.491 198.661,136.343 199.369,136.202 199.597 C 136.061 199.825,135.373 200.284,134.673 200.617 C 133.361 201.239,131.049 202.865,127.014 206.000 C 125.740 206.990,124.316 208.062,123.849 208.383 C 119.899 211.094,107.690 223.165,103.000 228.996 C 98.091 235.099,96.564 237.132,94.249 240.646 C 93.395 241.941,92.450 243.144,92.149 243.320 C 91.847 243.496,91.600 243.876,91.600 244.164 C 91.600 244.452,91.116 245.388,90.525 246.244 C 89.481 247.753,88.573 249.337,86.035 254.071 C 85.366 255.320,84.647 256.447,84.438 256.576 C 84.229 256.706,83.845 257.484,83.583 258.306 C 83.322 259.128,82.602 260.610,81.983 261.600 C 81.363 262.590,80.731 263.940,80.577 264.600 C 80.423 265.260,79.957 266.367,79.541 267.060 C 79.125 267.752,78.432 269.346,78.000 270.600 C 77.568 271.854,76.867 273.448,76.441 274.140 C 76.015 274.833,75.537 276.120,75.379 277.000 C 75.220 277.880,74.571 279.637,73.937 280.905 C 73.302 282.173,72.671 284.063,72.535 285.105 C 72.398 286.147,71.971 287.631,71.585 288.402 C 71.199 289.173,70.487 291.686,70.003 293.986 C 69.519 296.286,68.801 298.985,68.408 299.984 C 68.015 300.983,67.493 303.600,67.248 305.800 C 67.003 308.000,66.351 311.420,65.799 313.400 C 64.384 318.475,63.962 326.620,65.052 327.834 C 66.134 329.039,73.594 335.157,75.984 336.800 C 77.105 337.570,78.754 338.785,79.649 339.500 C 80.544 340.215,81.422 340.800,81.600 340.800 C 81.778 340.800,82.678 341.430,83.600 342.200 C 84.522 342.970,85.416 343.600,85.587 343.600 C 85.759 343.600,87.661 344.770,89.815 346.200 C 91.969 347.630,93.965 348.800,94.252 348.800 C 94.538 348.800,95.387 349.340,96.139 350.000 C 96.891 350.660,97.670 351.200,97.872 351.200 C 98.353 351.200,106.025 355.161,106.800 355.809 C 107.130 356.085,107.960 356.430,108.644 356.575 C 109.328 356.720,110.851 357.460,112.030 358.219 C 113.209 358.979,114.541 359.600,114.990 359.600 C 115.439 359.600,116.615 360.025,117.603 360.545 C 118.591 361.064,120.390 361.810,121.600 362.201 C 122.810 362.592,124.250 363.225,124.800 363.608 C 125.350 363.990,126.610 364.430,127.600 364.585 C 128.590 364.741,130.452 365.405,131.738 366.062 C 133.024 366.719,135.163 367.432,136.491 367.646 C 137.820 367.860,139.406 368.293,140.015 368.608 C 140.625 368.923,142.806 369.548,144.862 369.997 C 146.918 370.446,149.590 371.163,150.800 371.590 C 152.010 372.017,154.673 372.559,156.717 372.794 C 158.761 373.028,161.821 373.666,163.517 374.210 C 165.945 374.989,168.087 375.289,173.600 375.623 C 177.450 375.856,181.335 376.210,182.234 376.410 C 188.202 377.738,208.306 377.838,216.641 376.581 C 218.818 376.252,223.480 375.810,227.000 375.599 C 231.983 375.299,234.089 374.991,236.515 374.207 C 238.228 373.653,241.373 373.006,243.504 372.768 C 245.635 372.531,248.013 372.068,248.789 371.740 C 249.565 371.412,252.159 370.698,254.554 370.154 C 256.948 369.610,259.399 368.911,260.000 368.600 C 260.601 368.289,262.176 367.860,263.499 367.647 C 264.822 367.434,266.961 366.728,268.252 366.079 C 269.543 365.429,271.410 364.767,272.400 364.606 C 273.390 364.446,274.767 363.971,275.460 363.550 C 276.152 363.129,277.763 362.426,279.038 361.987 C 280.314 361.548,281.760 360.925,282.253 360.602 C 282.746 360.279,283.998 359.825,285.035 359.592 C 286.072 359.360,287.442 358.731,288.079 358.195 C 288.715 357.659,289.993 357.020,290.918 356.773 C 291.843 356.527,292.878 356.078,293.218 355.775 C 293.558 355.472,295.030 354.683,296.489 354.021 C 297.948 353.360,299.247 352.648,299.376 352.439 C 299.505 352.229,300.284 351.839,301.106 351.572 C 301.928 351.304,303.191 350.571,303.914 349.943 C 304.637 349.314,305.469 348.800,305.763 348.800 C 306.058 348.800,308.061 347.630,310.215 346.200 C 312.369 344.770,314.242 343.600,314.376 343.600 C 314.511 343.600,315.607 342.883,316.811 342.006 C 318.015 341.130,319.720 339.904,320.600 339.283 C 325.692 335.689,327.907 334.000,330.600 331.659 C 331.040 331.277,332.702 329.903,334.294 328.607 C 338.271 325.368,338.880 321.441,336.586 313.818 C 336.258 312.729,335.822 309.939,335.617 307.619 C 335.370 304.818,334.899 302.483,334.216 300.674 C 333.650 299.175,332.986 296.565,332.739 294.874 C 332.493 293.183,331.967 291.154,331.571 290.365 C 331.175 289.576,330.485 287.506,330.038 285.765 C 329.591 284.024,328.860 281.887,328.413 281.015 C 327.966 280.144,327.600 278.954,327.600 278.372 C 327.600 277.789,327.033 276.252,326.340 274.956 C 325.647 273.660,324.848 271.727,324.565 270.660 C 324.283 269.593,323.791 268.423,323.472 268.060 C 323.154 267.697,322.489 266.278,321.995 264.906 C 321.502 263.535,320.852 262.209,320.552 261.960 C 320.251 261.711,319.821 260.821,319.595 259.982 C 319.369 259.144,318.558 257.527,317.792 256.389 C 317.027 255.251,316.397 254.113,316.393 253.860 C 316.389 253.607,315.894 252.655,315.293 251.744 C 314.089 249.919,313.114 248.340,311.600 245.761 C 307.071 238.047,296.188 224.461,289.172 217.762 C 285.729 214.474,279.389 208.856,278.148 207.993 C 277.679 207.667,276.090 206.500,274.617 205.400 C 270.180 202.088,268.123 200.661,265.969 199.400 C 264.841 198.740,263.053 197.638,261.996 196.952 C 260.939 196.266,259.489 195.500,258.773 195.250 C 258.057 195.001,256.915 194.375,256.236 193.859 C 255.556 193.343,254.280 192.691,253.400 192.410 C 252.520 192.129,251.530 191.674,251.200 191.400 C 250.870 191.126,249.880 190.678,249.000 190.405 C 248.120 190.132,246.406 189.413,245.192 188.807 C 243.978 188.201,242.039 187.503,240.884 187.255 C 239.728 187.007,237.932 186.374,236.891 185.848 C 235.851 185.321,233.680 184.686,232.066 184.436 C 230.452 184.187,228.472 183.702,227.666 183.360 C 226.860 183.018,224.087 182.487,221.504 182.181 C 216.809 181.624,214.210 180.770,214.506 179.881 C 214.757 179.128,220.810 176.069,222.970 175.603 C 224.054 175.370,225.854 174.665,226.970 174.037 C 228.087 173.409,229.675 172.680,230.500 172.417 C 231.325 172.153,232.000 171.785,232.000 171.598 C 232.000 171.412,232.945 170.779,234.100 170.192 C 236.115 169.168,238.402 167.723,239.536 166.757 C 239.831 166.506,241.361 165.264,242.936 163.997 C 246.187 161.382,249.417 158.107,252.202 154.600 C 253.250 153.280,254.358 151.930,254.664 151.600 C 255.504 150.693,257.103 148.165,258.178 146.044 C 258.706 145.002,259.410 143.924,259.743 143.647 C 260.076 143.371,260.469 142.572,260.617 141.872 C 260.764 141.173,261.395 139.760,262.018 138.734 C 262.641 137.707,263.275 136.177,263.427 135.334 C 263.578 134.490,264.119 132.795,264.628 131.567 C 268.585 122.025,268.653 98.782,264.751 90.005 C 264.309 89.012,263.788 87.364,263.593 86.343 C 263.397 85.322,262.689 83.622,262.019 82.565 C 261.348 81.508,260.800 80.344,260.800 79.978 C 260.800 79.611,260.346 78.643,259.791 77.825 C 259.236 77.007,258.350 75.486,257.822 74.444 C 257.294 73.402,256.578 72.314,256.231 72.026 C 255.884 71.738,255.600 71.342,255.600 71.147 C 255.600 69.913,244.860 58.311,241.892 56.339 C 241.114 55.823,239.378 54.545,238.035 53.500 C 236.691 52.455,235.431 51.600,235.236 51.600 C 235.040 51.600,233.917 50.947,232.740 50.148 C 231.563 49.350,229.970 48.522,229.200 48.309 C 228.430 48.095,227.530 47.684,227.200 47.394 C 226.870 47.105,225.340 46.472,223.800 45.988 C 222.260 45.504,220.575 44.841,220.055 44.515 C 219.536 44.189,217.466 43.660,215.455 43.339 C 213.445 43.017,210.057 42.315,207.928 41.777 C 202.855 40.497,194.378 40.440,189.400 41.652 " stroke="none" fill="#4c7dbc" fill-rule="evenodd"></path><path id="path1" d="M0.000 200.000 L 0.000 400.000 200.000 400.000 L 400.000 400.000 400.000 200.000 L 400.000 0.000 200.000 0.000 L 0.000 0.000 0.000 200.000 M214.893 40.280 C 215.934 40.758,217.644 41.276,218.693 41.431 C 221.219 41.805,223.418 42.599,224.680 43.591 C 225.245 44.036,226.091 44.400,226.560 44.400 C 227.029 44.400,228.040 44.763,228.806 45.207 C 229.573 45.650,231.280 46.548,232.600 47.201 C 234.727 48.254,236.712 49.483,240.675 52.200 C 247.002 56.538,256.197 66.445,259.400 72.374 C 259.840 73.188,260.595 74.349,261.077 74.952 C 261.560 75.556,262.167 76.714,262.426 77.525 C 262.686 78.336,263.234 79.369,263.643 79.819 C 264.053 80.270,264.507 81.260,264.652 82.019 C 264.798 82.779,265.449 84.465,266.098 85.767 C 266.748 87.069,267.442 89.285,267.641 90.690 C 267.840 92.096,268.285 93.791,268.630 94.458 C 271.164 99.359,271.144 121.821,268.601 126.919 C 268.255 127.612,267.804 129.359,267.600 130.800 C 267.374 132.393,266.755 134.279,266.021 135.610 C 265.358 136.815,264.809 138.160,264.801 138.600 C 264.794 139.040,264.528 139.850,264.209 140.400 C 263.891 140.950,263.004 142.705,262.238 144.300 C 261.472 145.895,260.673 147.200,260.462 147.200 C 260.251 147.200,259.900 147.711,259.682 148.335 C 258.506 151.709,248.914 162.638,243.369 166.921 C 239.893 169.606,237.065 171.600,236.731 171.600 C 236.553 171.600,235.602 172.214,234.619 172.965 C 233.635 173.715,232.296 174.447,231.643 174.591 C 230.990 174.734,230.242 175.108,229.981 175.423 C 229.721 175.737,228.277 176.360,226.774 176.808 C 221.185 178.472,221.297 180.095,227.032 180.523 C 229.365 180.697,230.843 181.056,232.347 181.811 C 233.494 182.387,235.628 183.044,237.090 183.272 C 238.552 183.499,240.210 184.012,240.774 184.411 C 241.338 184.810,242.754 185.330,243.920 185.568 C 246.230 186.039,248.400 187.012,248.400 187.577 C 248.400 187.773,249.283 188.123,250.361 188.354 C 251.440 188.586,253.105 189.299,254.061 189.940 C 255.018 190.581,256.366 191.226,257.059 191.375 C 257.751 191.524,258.634 191.995,259.021 192.423 C 259.407 192.850,259.924 193.200,260.168 193.200 C 260.861 193.200,263.722 194.809,264.516 195.646 C 264.909 196.061,265.468 196.400,265.758 196.400 C 266.048 196.400,267.110 197.030,268.118 197.800 C 269.127 198.570,270.105 199.200,270.292 199.200 C 270.480 199.200,271.795 200.103,273.216 201.206 C 274.637 202.310,276.250 203.517,276.800 203.890 C 281.831 207.296,293.431 218.155,299.350 225.000 C 303.451 229.742,303.782 230.153,304.737 231.698 C 305.184 232.422,306.011 233.447,306.575 233.977 C 307.139 234.506,307.600 235.156,307.600 235.421 C 307.600 235.685,307.900 236.149,308.266 236.451 C 308.953 237.017,311.366 240.490,312.365 242.349 C 312.675 242.927,313.530 244.191,314.265 245.158 C 314.999 246.124,315.600 247.091,315.600 247.307 C 315.600 247.523,316.320 248.777,317.200 250.095 C 318.080 251.413,318.800 252.719,318.800 252.997 C 318.800 253.275,319.061 253.718,319.380 253.983 C 319.698 254.248,320.174 255.125,320.437 255.932 C 320.700 256.739,321.410 258.123,322.014 259.008 C 322.617 259.892,323.295 261.282,323.520 262.096 C 323.745 262.911,324.290 264.084,324.732 264.705 C 325.174 265.325,325.925 266.995,326.402 268.416 C 326.879 269.837,327.508 271.270,327.801 271.600 C 328.093 271.930,328.466 272.920,328.629 273.799 C 328.793 274.679,329.528 276.653,330.263 278.188 C 330.998 279.722,331.600 281.489,331.600 282.114 C 331.600 282.739,332.153 284.397,332.829 285.798 C 333.543 287.280,334.233 289.571,334.477 291.273 C 334.708 292.883,335.221 294.740,335.617 295.400 C 336.038 296.101,336.504 298.097,336.739 300.200 C 336.960 302.180,337.607 305.240,338.176 307.000 C 338.982 309.496,339.297 311.594,339.606 316.540 C 339.824 320.028,340.093 323.028,340.204 323.207 C 341.007 324.505,339.493 327.470,336.888 329.705 C 335.409 330.972,333.930 332.260,333.600 332.566 C 333.270 332.873,331.920 333.938,330.600 334.933 C 327.758 337.077,325.268 339.006,323.490 340.441 C 322.239 341.451,320.031 342.954,317.380 344.600 C 316.671 345.040,315.306 345.927,314.346 346.570 C 309.503 349.817,308.556 350.400,308.127 350.400 C 307.871 350.400,307.153 350.825,306.531 351.345 C 305.909 351.865,304.950 352.423,304.400 352.586 C 303.850 352.748,302.757 353.386,301.971 354.002 C 301.186 354.619,299.878 355.307,299.066 355.531 C 298.253 355.755,297.043 356.398,296.376 356.959 C 295.709 357.520,294.407 358.194,293.482 358.457 C 292.557 358.721,291.431 359.263,290.981 359.662 C 290.530 360.061,289.540 360.506,288.781 360.651 C 288.021 360.796,286.601 361.445,285.625 362.095 C 284.648 362.744,283.208 363.371,282.425 363.488 C 281.641 363.606,280.087 364.214,278.970 364.840 C 277.854 365.466,275.970 366.186,274.784 366.441 C 273.598 366.695,272.172 367.230,271.614 367.629 C 271.056 368.028,269.575 368.537,268.321 368.760 C 267.068 368.983,265.128 369.628,264.010 370.195 C 262.871 370.772,260.776 371.376,259.242 371.568 C 257.738 371.757,256.078 372.187,255.553 372.525 C 254.256 373.358,250.734 374.280,247.650 374.593 C 246.248 374.735,244.208 375.203,243.119 375.632 C 241.942 376.096,239.647 376.508,237.468 376.646 C 235.451 376.775,231.370 377.443,228.400 378.133 L 223.000 379.385 200.000 379.393 C 177.691 379.400,176.898 379.374,173.600 378.531 C 168.861 377.321,166.347 376.897,162.311 376.629 C 160.389 376.501,157.964 376.060,156.911 375.647 C 155.860 375.234,153.431 374.689,151.513 374.435 C 148.002 373.971,145.110 373.155,144.151 372.359 C 143.866 372.123,142.373 371.771,140.834 371.578 C 139.218 371.375,137.219 370.799,136.102 370.215 C 135.038 369.659,133.095 369.013,131.784 368.779 C 130.473 368.546,128.939 368.025,128.376 367.621 C 127.813 367.218,126.337 366.677,125.096 366.420 C 123.855 366.162,122.191 365.511,121.397 364.972 C 120.604 364.434,119.113 363.805,118.085 363.574 C 117.057 363.344,115.389 362.647,114.379 362.025 C 113.369 361.403,111.978 360.771,111.290 360.620 C 110.601 360.468,109.618 360.014,109.105 359.611 C 108.592 359.207,107.437 358.679,106.540 358.438 C 105.642 358.196,104.229 357.459,103.399 356.799 C 102.569 356.140,101.575 355.600,101.190 355.600 C 100.805 355.600,99.610 354.995,98.536 354.256 C 97.461 353.516,96.136 352.772,95.591 352.601 C 95.046 352.430,94.091 351.865,93.469 351.345 C 92.847 350.825,92.127 350.400,91.869 350.399 C 91.400 350.398,88.089 348.311,84.907 346.010 C 83.977 345.337,82.762 344.613,82.207 344.403 C 81.653 344.192,81.200 343.857,81.200 343.658 C 81.200 343.460,80.669 343.077,80.020 342.808 C 79.371 342.539,78.210 341.708,77.440 340.960 C 76.670 340.212,75.862 339.600,75.644 339.600 C 75.427 339.600,74.440 338.925,73.452 338.100 C 72.464 337.275,70.794 335.970,69.741 335.200 C 61.675 329.301,61.159 328.316,62.327 321.043 C 62.790 318.159,63.269 314.042,63.393 311.893 C 63.532 309.472,63.908 307.247,64.383 306.043 C 64.804 304.974,65.265 302.952,65.407 301.550 C 65.720 298.466,66.642 294.944,67.475 293.647 C 67.813 293.122,68.243 291.462,68.432 289.958 C 68.623 288.437,69.227 286.330,69.793 285.213 C 70.353 284.108,71.049 282.073,71.338 280.691 C 71.628 279.309,72.148 277.733,72.493 277.189 C 72.839 276.645,73.251 275.570,73.410 274.800 C 73.715 273.314,75.089 270.342,75.632 269.990 C 75.810 269.874,76.146 268.932,76.379 267.895 C 76.611 266.858,77.327 265.153,77.970 264.105 C 78.613 263.057,79.267 261.660,79.422 261.000 C 79.578 260.340,80.019 259.440,80.403 259.000 C 80.787 258.560,81.314 257.537,81.573 256.727 C 81.832 255.917,82.574 254.588,83.222 253.772 C 83.870 252.957,84.400 252.063,84.400 251.785 C 84.400 251.508,84.993 250.400,85.717 249.323 C 86.441 248.247,87.273 246.789,87.566 246.083 C 87.858 245.377,88.239 244.800,88.413 244.800 C 88.587 244.800,89.118 243.996,89.593 243.014 C 90.069 242.032,90.891 240.817,91.422 240.314 C 91.952 239.811,92.389 239.186,92.393 238.924 C 92.397 238.663,93.106 237.633,93.970 236.635 C 94.833 235.638,95.655 234.457,95.797 234.011 C 95.938 233.565,96.191 233.200,96.360 233.200 C 96.528 233.200,97.248 232.300,97.961 231.200 C 98.674 230.100,99.420 229.200,99.618 229.200 C 99.817 229.200,100.248 228.705,100.576 228.100 C 100.904 227.495,102.349 225.748,103.786 224.217 C 105.224 222.686,106.400 221.286,106.400 221.107 C 106.400 220.927,106.850 220.609,107.400 220.400 C 107.950 220.191,108.400 219.790,108.400 219.510 C 108.400 219.229,109.951 217.560,111.848 215.800 C 113.744 214.040,116.129 211.816,117.148 210.858 C 119.275 208.858,119.834 208.371,122.656 206.074 C 123.786 205.153,124.844 204.400,125.007 204.400 C 125.170 204.400,125.996 203.815,126.843 203.100 C 129.954 200.472,131.119 199.600,131.515 199.600 C 131.737 199.600,132.878 198.880,134.049 198.000 C 135.220 197.120,136.395 196.400,136.659 196.400 C 136.923 196.400,137.678 195.946,138.337 195.392 C 138.995 194.838,140.335 194.030,141.314 193.597 C 142.293 193.164,143.311 192.549,143.575 192.230 C 143.839 191.912,144.628 191.528,145.328 191.378 C 146.027 191.228,147.377 190.584,148.326 189.949 C 149.275 189.313,150.746 188.637,151.594 188.446 C 152.443 188.255,153.646 187.748,154.269 187.319 C 155.585 186.412,157.230 185.763,159.200 185.373 C 159.970 185.220,161.014 184.771,161.521 184.374 C 162.027 183.977,163.467 183.524,164.721 183.368 C 165.974 183.212,168.260 182.567,169.800 181.936 C 171.510 181.235,173.729 180.690,175.500 180.535 C 178.141 180.305,179.647 179.600,177.500 179.600 C 177.005 179.600,175.472 179.066,174.092 178.413 C 172.713 177.761,170.823 177.024,169.892 176.776 C 168.962 176.528,167.921 176.077,167.580 175.773 C 167.239 175.470,166.159 174.939,165.180 174.595 C 164.201 174.250,162.770 173.468,162.000 172.857 C 161.230 172.246,160.285 171.629,159.900 171.486 C 156.891 170.366,146.485 161.049,142.289 155.719 C 141.458 154.664,140.127 152.990,139.331 152.000 C 138.535 151.010,137.651 149.646,137.365 148.968 C 137.080 148.291,136.583 147.518,136.262 147.252 C 135.941 146.985,135.569 146.330,135.435 145.796 C 135.301 145.262,134.564 143.785,133.797 142.513 C 133.030 141.241,132.402 139.862,132.401 139.449 C 132.400 139.035,131.853 137.741,131.185 136.573 C 130.516 135.405,129.726 133.223,129.429 131.724 C 129.132 130.226,128.554 128.370,128.145 127.600 C 126.910 125.278,127.011 95.726,128.262 93.391 C 128.736 92.505,129.253 90.885,129.411 89.791 C 129.734 87.557,130.550 85.339,131.393 84.408 C 131.702 84.067,132.143 82.947,132.373 81.920 C 132.603 80.893,133.311 79.276,133.946 78.326 C 134.580 77.377,135.233 76.150,135.396 75.600 C 135.559 75.050,136.010 74.240,136.399 73.800 C 136.788 73.360,137.423 72.370,137.809 71.600 C 138.196 70.830,138.944 69.660,139.472 69.000 C 142.217 65.566,146.187 60.966,147.507 59.690 C 150.356 56.934,155.630 52.400,155.985 52.400 C 156.182 52.400,156.648 52.085,157.021 51.700 C 157.936 50.757,161.192 48.741,164.600 47.009 C 166.140 46.227,167.850 45.322,168.400 44.999 C 168.950 44.676,169.718 44.409,170.106 44.406 C 170.494 44.403,171.782 43.853,172.966 43.184 C 174.197 42.489,176.209 41.794,177.660 41.561 C 179.057 41.337,180.740 40.879,181.400 40.542 C 184.655 38.882,211.391 38.673,214.893 40.280 " stroke="none" fill="#fbfbfc" fill-rule="evenodd"></path><path id="path2" d="M188.400 39.991 C 186.750 40.174,184.668 40.592,183.773 40.919 C 182.878 41.245,180.718 41.827,178.973 42.210 C 177.228 42.593,175.097 43.261,174.237 43.694 C 173.377 44.127,171.845 44.727,170.832 45.028 C 169.819 45.328,168.372 46.030,167.617 46.587 C 166.862 47.144,165.956 47.600,165.602 47.600 C 164.661 47.600,158.619 51.535,153.543 55.454 C 151.718 56.863,145.508 63.077,142.605 66.400 C 141.258 67.942,136.075 75.927,135.778 76.918 C 135.633 77.403,135.009 78.610,134.391 79.600 C 133.773 80.590,133.065 82.168,132.817 83.106 C 132.569 84.044,132.031 85.394,131.622 86.106 C 131.212 86.818,130.759 88.030,130.615 88.800 C 130.470 89.570,129.777 92.090,129.076 94.400 L 127.800 98.600 127.826 111.000 C 127.851 123.223,127.866 123.443,128.875 126.400 C 129.438 128.050,130.122 130.390,130.394 131.600 C 130.666 132.810,131.221 134.382,131.627 135.094 C 132.034 135.806,132.569 137.156,132.817 138.094 C 133.065 139.032,133.773 140.610,134.391 141.600 C 135.009 142.590,135.648 143.850,135.811 144.400 C 135.974 144.950,136.596 146.120,137.193 147.000 C 138.510 148.942,139.282 150.102,140.656 152.200 C 143.505 156.552,152.759 165.850,156.549 168.168 C 157.297 168.626,158.694 169.528,159.654 170.174 C 163.210 172.565,164.950 173.600,165.413 173.600 C 165.674 173.600,166.588 174.077,167.444 174.661 C 168.300 175.244,169.980 175.979,171.178 176.293 C 172.376 176.608,174.176 177.272,175.178 177.770 C 176.180 178.267,177.855 178.905,178.900 179.189 C 181.960 180.019,181.323 180.386,175.000 181.436 C 174.120 181.582,172.410 182.106,171.200 182.599 C 169.990 183.092,168.029 183.619,166.842 183.770 C 165.655 183.920,164.035 184.373,163.242 184.776 C 162.449 185.180,160.590 185.883,159.111 186.339 C 157.632 186.794,156.001 187.443,155.487 187.780 C 154.972 188.117,153.721 188.643,152.705 188.948 C 151.689 189.254,150.317 189.890,149.655 190.361 C 148.994 190.832,147.726 191.473,146.837 191.787 C 145.948 192.101,144.544 192.817,143.717 193.379 C 142.891 193.940,142.058 194.400,141.867 194.400 C 141.399 194.400,136.950 197.102,135.142 198.485 C 134.341 199.098,133.518 199.600,133.315 199.600 C 132.934 199.600,129.158 202.230,127.885 203.383 C 127.492 203.739,126.666 204.338,126.050 204.715 C 122.454 206.915,112.821 215.732,106.256 222.832 C 102.502 226.892,101.922 227.552,101.000 228.809 C 100.560 229.409,99.390 230.940,98.400 232.212 C 95.191 236.334,92.510 240.147,89.408 245.000 C 85.908 250.476,80.211 260.974,79.664 262.954 C 79.446 263.742,78.889 264.869,78.427 265.457 C 77.964 266.045,77.298 267.533,76.946 268.763 C 76.594 269.993,76.063 271.278,75.766 271.618 C 75.468 271.958,74.843 273.488,74.377 275.018 C 73.911 276.548,73.263 278.217,72.938 278.728 C 72.612 279.238,72.087 280.893,71.772 282.406 C 71.456 283.919,70.843 285.760,70.408 286.497 C 69.973 287.234,69.270 289.565,68.845 291.677 C 68.420 293.790,67.871 295.894,67.624 296.355 C 67.378 296.815,66.816 299.191,66.376 301.635 C 65.936 304.078,65.234 307.365,64.816 308.939 C 64.397 310.512,63.945 313.510,63.810 315.600 C 63.676 317.690,63.375 321.036,63.142 323.035 C 62.650 327.247,63.269 329.145,65.691 330.859 C 66.411 331.369,68.440 332.907,70.200 334.277 C 73.363 336.739,75.465 338.361,77.800 340.139 C 80.399 342.118,83.856 344.400,84.255 344.400 C 84.487 344.400,85.019 344.779,85.438 345.243 C 85.857 345.707,87.010 346.524,88.000 347.060 C 88.990 347.595,90.970 348.751,92.400 349.627 C 93.830 350.504,95.907 351.648,97.016 352.169 C 98.125 352.689,99.264 353.395,99.548 353.737 C 99.831 354.078,100.904 354.668,101.932 355.047 C 102.959 355.426,104.070 355.947,104.400 356.206 C 105.248 356.871,112.605 360.400,113.143 360.400 C 113.388 360.400,114.776 361.030,116.227 361.800 C 117.679 362.570,119.168 363.200,119.536 363.200 C 119.905 363.200,121.015 363.627,122.003 364.149 C 122.991 364.671,124.857 365.402,126.149 365.774 C 127.441 366.146,129.136 366.793,129.916 367.211 C 130.696 367.629,132.159 368.090,133.167 368.235 C 134.175 368.380,135.921 368.928,137.047 369.453 C 138.173 369.978,140.736 370.759,142.743 371.188 C 144.750 371.617,146.761 372.165,147.213 372.407 C 147.664 372.648,149.601 373.114,151.517 373.441 C 153.432 373.768,156.620 374.465,158.600 374.989 C 160.580 375.513,164.473 376.141,167.251 376.385 C 170.028 376.628,172.908 377.003,173.651 377.218 C 181.673 379.541,215.525 379.643,225.521 377.374 C 226.907 377.059,230.237 376.610,232.921 376.375 C 235.604 376.140,239.074 375.599,240.631 375.172 C 242.187 374.746,245.337 374.050,247.631 373.626 C 249.924 373.202,252.443 372.583,253.230 372.251 C 254.016 371.919,255.906 371.434,257.430 371.173 C 258.953 370.912,261.285 370.211,262.611 369.615 C 263.938 369.018,265.807 368.405,266.767 368.252 C 267.726 368.098,269.452 367.542,270.602 367.016 C 271.753 366.490,273.481 365.848,274.443 365.589 C 275.404 365.330,277.002 364.686,277.993 364.159 C 278.983 363.631,280.097 363.200,280.468 363.200 C 280.839 363.200,282.351 362.570,283.828 361.800 C 285.305 361.030,286.696 360.400,286.918 360.400 C 287.568 360.400,299.682 354.342,301.000 353.358 C 301.660 352.865,302.697 352.338,303.304 352.187 C 303.911 352.035,304.504 351.756,304.621 351.565 C 304.739 351.375,306.007 350.540,307.439 349.710 C 311.861 347.146,313.493 346.108,318.884 342.431 C 322.909 339.685,323.454 339.283,328.148 335.600 C 330.530 333.730,333.047 331.792,333.740 331.294 C 334.433 330.795,335.450 329.939,336.000 329.391 C 336.550 328.843,337.414 328.081,337.920 327.697 C 339.875 326.215,339.736 318.222,337.602 309.400 C 336.964 306.760,336.321 303.446,336.174 302.036 C 336.027 300.626,335.493 298.286,334.987 296.836 C 334.482 295.386,333.859 293.040,333.602 291.622 C 333.346 290.204,332.812 288.404,332.415 287.622 C 332.017 286.840,331.471 285.120,331.199 283.800 C 330.928 282.480,330.212 280.410,329.608 279.200 C 329.004 277.990,328.380 276.285,328.220 275.412 C 328.061 274.539,327.515 273.099,327.007 272.212 C 326.499 271.325,325.957 270.150,325.803 269.600 C 325.513 268.559,323.223 263.484,322.104 261.400 C 321.749 260.740,321.120 259.480,320.705 258.600 C 320.290 257.720,319.706 256.550,319.406 256.000 C 315.645 249.099,314.215 246.641,313.385 245.656 C 312.843 245.011,312.400 244.358,312.400 244.204 C 312.400 243.780,307.064 235.938,305.277 233.737 C 304.770 233.112,303.016 230.911,301.381 228.846 C 298.192 224.821,298.240 224.875,291.635 218.098 C 286.532 212.863,282.522 209.377,275.200 203.810 C 274.210 203.057,272.834 201.981,272.142 201.418 C 271.450 200.855,270.265 200.136,269.510 199.820 C 268.754 199.504,267.892 198.952,267.593 198.592 C 267.295 198.232,266.173 197.457,265.100 196.869 C 260.947 194.592,260.128 194.137,257.951 192.889 C 256.715 192.180,255.444 191.600,255.129 191.600 C 254.814 191.600,253.938 191.144,253.183 190.587 C 252.428 190.030,250.922 189.311,249.837 188.989 C 248.752 188.666,247.439 188.125,246.921 187.785 C 246.402 187.445,244.768 186.794,243.289 186.339 C 241.810 185.883,239.951 185.180,239.158 184.776 C 238.365 184.373,236.745 183.920,235.558 183.770 C 234.371 183.619,232.408 183.085,231.195 182.583 C 229.000 181.674,226.276 181.093,221.906 180.602 C 220.645 180.460,219.529 180.209,219.427 180.044 C 219.129 179.562,223.556 176.839,225.355 176.398 C 226.260 176.176,227.450 175.742,228.000 175.433 C 228.550 175.125,230.080 174.313,231.400 173.630 C 233.736 172.421,236.081 171.004,239.652 168.645 C 243.703 165.968,251.270 158.738,254.297 154.652 C 255.133 153.523,256.216 152.060,256.704 151.400 C 259.283 147.911,264.378 138.425,264.392 137.087 C 264.397 136.694,264.882 135.434,265.470 134.287 C 266.059 133.139,266.846 130.670,267.221 128.800 C 267.595 126.930,268.229 124.230,268.630 122.800 C 269.697 118.990,269.701 102.234,268.635 98.400 C 268.238 96.970,267.591 94.257,267.199 92.371 C 266.807 90.485,266.016 88.016,265.443 86.884 C 264.869 85.753,264.400 84.527,264.400 84.162 C 264.400 81.895,256.726 69.099,252.547 64.400 C 246.333 57.411,235.768 49.042,231.296 47.566 C 230.524 47.311,229.280 46.687,228.532 46.180 C 227.785 45.673,226.594 45.133,225.887 44.980 C 225.179 44.827,223.880 44.338,223.000 43.892 C 222.120 43.446,219.780 42.662,217.800 42.149 C 215.820 41.636,213.210 40.929,212.000 40.577 C 209.432 39.830,193.423 39.432,188.400 39.991 M211.200 41.174 C 212.850 41.634,215.550 42.299,217.200 42.652 C 218.850 43.005,220.831 43.614,221.602 44.005 C 222.373 44.396,223.813 44.929,224.802 45.188 C 225.791 45.447,227.230 46.066,228.000 46.562 C 228.770 47.058,229.983 47.664,230.695 47.909 C 231.408 48.155,232.790 48.905,233.767 49.578 C 234.745 50.250,235.692 50.806,235.872 50.814 C 236.052 50.821,237.370 51.721,238.800 52.813 C 240.230 53.906,242.031 55.224,242.801 55.742 C 245.671 57.674,256.000 68.875,256.000 70.056 C 256.000 70.230,256.524 70.969,257.165 71.699 C 257.805 72.428,259.309 74.909,260.506 77.212 C 261.704 79.516,262.979 81.940,263.339 82.600 C 263.700 83.260,263.998 84.160,264.001 84.600 C 264.005 85.040,264.473 86.390,265.043 87.600 C 265.612 88.810,266.414 91.420,266.825 93.400 C 267.236 95.380,267.845 98.260,268.179 99.800 C 269.023 103.691,269.023 117.509,268.179 121.400 C 267.845 122.940,267.236 125.820,266.825 127.800 C 266.414 129.780,265.612 132.390,265.043 133.600 C 264.473 134.810,264.005 136.160,264.001 136.600 C 263.998 137.040,263.704 137.940,263.349 138.600 C 262.993 139.260,261.749 141.624,260.584 143.853 C 259.419 146.082,257.866 148.723,257.133 149.721 C 256.400 150.720,254.900 152.754,253.800 154.241 C 249.291 160.339,242.565 166.230,234.200 171.410 C 231.719 172.946,226.152 175.636,224.606 176.045 C 222.733 176.542,217.200 179.496,217.200 180.000 C 217.200 180.383,220.159 181.014,223.800 181.407 C 225.120 181.549,227.550 182.117,229.200 182.668 C 230.850 183.219,233.257 183.841,234.548 184.051 C 235.840 184.261,237.555 184.769,238.360 185.180 C 239.165 185.590,240.872 186.231,242.154 186.604 C 244.434 187.267,247.393 188.497,252.200 190.781 C 256.938 193.032,257.430 193.281,259.630 194.532 C 260.856 195.229,262.746 196.304,263.830 196.920 C 277.025 204.424,296.299 221.699,303.574 232.544 C 303.890 233.015,304.621 233.940,305.200 234.600 C 306.215 235.758,310.200 241.557,311.757 244.143 C 312.173 244.834,312.957 246.066,313.498 246.881 C 314.488 248.371,314.728 248.783,317.089 253.064 C 317.798 254.349,318.641 255.850,318.962 256.400 C 320.128 258.393,325.200 269.200,325.201 269.694 C 325.202 269.972,325.832 271.450,326.601 272.977 C 327.371 274.504,328.000 276.124,328.000 276.577 C 328.000 277.030,328.520 278.497,329.154 279.837 C 329.788 281.178,330.501 283.178,330.737 284.281 C 330.974 285.385,331.513 287.168,331.936 288.244 C 332.359 289.320,332.986 291.550,333.331 293.200 C 333.675 294.850,334.326 297.262,334.778 298.560 C 335.229 299.858,335.790 302.558,336.024 304.560 C 336.258 306.562,336.789 309.460,337.203 311.000 C 338.715 316.616,339.274 324.509,338.286 326.261 C 337.835 327.059,332.565 331.529,328.217 334.800 C 327.193 335.570,325.578 336.830,324.627 337.600 C 322.729 339.136,318.282 342.258,315.061 344.316 C 313.927 345.041,312.190 346.160,311.200 346.804 C 310.210 347.448,308.399 348.506,307.176 349.155 C 305.953 349.804,304.724 350.610,304.444 350.947 C 304.165 351.284,303.275 351.776,302.468 352.040 C 301.661 352.305,300.460 352.915,299.800 353.397 C 299.140 353.878,297.970 354.511,297.200 354.802 C 296.430 355.093,295.530 355.558,295.200 355.834 C 294.870 356.111,293.625 356.720,292.433 357.189 C 291.241 357.658,289.799 358.373,289.229 358.779 C 288.659 359.185,287.427 359.724,286.490 359.976 C 285.554 360.228,284.162 360.803,283.398 361.254 C 282.040 362.056,279.301 363.144,273.949 365.010 C 272.490 365.518,270.600 366.288,269.749 366.721 C 268.897 367.153,267.120 367.728,265.800 367.997 C 264.480 368.266,262.410 368.900,261.200 369.405 C 259.990 369.911,257.920 370.522,256.600 370.765 C 255.280 371.007,253.120 371.557,251.800 371.987 C 250.480 372.417,247.690 373.055,245.600 373.406 C 243.510 373.756,240.630 374.382,239.200 374.796 C 237.770 375.211,234.440 375.749,231.800 375.992 C 229.160 376.236,224.480 376.832,221.400 377.317 C 212.966 378.647,186.959 378.640,178.600 377.307 C 175.520 376.815,170.840 376.220,168.200 375.984 C 165.560 375.748,162.230 375.215,160.800 374.799 C 159.370 374.383,156.490 373.756,154.400 373.406 C 152.310 373.055,149.520 372.422,148.200 371.998 C 146.880 371.574,144.515 370.965,142.944 370.645 C 141.374 370.324,139.384 369.702,138.523 369.263 C 137.661 368.823,135.796 368.256,134.378 368.003 C 132.960 367.749,131.370 367.265,130.844 366.925 C 130.319 366.586,128.429 365.810,126.644 365.200 C 121.616 363.483,117.915 362.011,116.600 361.207 C 115.940 360.803,114.611 360.263,113.646 360.007 C 112.682 359.750,111.242 359.110,110.446 358.584 C 109.651 358.058,108.370 357.412,107.600 357.148 C 106.830 356.885,105.573 356.249,104.807 355.735 C 104.041 355.221,103.221 354.800,102.985 354.800 C 102.750 354.800,101.666 354.235,100.578 353.545 C 99.490 352.854,98.060 352.106,97.400 351.881 C 96.740 351.656,95.721 351.096,95.136 350.636 C 94.551 350.176,92.571 348.928,90.736 347.861 C 85.358 344.736,83.370 343.393,73.971 336.535 C 73.318 336.059,72.185 335.159,71.453 334.535 C 70.720 333.911,68.939 332.500,67.494 331.400 C 63.423 328.300,63.383 328.175,63.941 320.150 C 64.216 316.188,64.737 312.161,65.201 310.400 C 65.636 308.750,66.344 305.330,66.774 302.800 C 67.205 300.270,67.820 297.569,68.143 296.797 C 68.466 296.026,68.940 294.226,69.196 292.797 C 69.453 291.369,70.162 288.940,70.771 287.400 C 71.381 285.860,72.005 283.798,72.158 282.818 C 72.310 281.839,72.770 280.489,73.179 279.818 C 73.588 279.148,74.305 277.302,74.773 275.716 C 75.241 274.130,75.785 272.733,75.982 272.611 C 76.178 272.490,76.643 271.448,77.015 270.295 C 77.386 269.143,78.096 267.480,78.591 266.600 C 79.087 265.720,79.721 264.280,80.002 263.400 C 80.282 262.520,80.832 261.342,81.224 260.782 C 81.616 260.222,82.402 258.782,82.970 257.582 C 83.538 256.382,84.587 254.375,85.301 253.123 C 86.016 251.871,87.076 249.981,87.659 248.923 C 88.563 247.281,92.138 241.847,95.636 236.800 C 96.170 236.030,98.045 233.625,99.803 231.455 C 101.561 229.285,103.377 226.990,103.839 226.355 C 104.653 225.235,106.831 222.914,111.817 217.853 C 114.565 215.063,121.374 208.859,122.649 207.983 C 123.116 207.662,124.540 206.590,125.814 205.600 C 130.044 202.313,132.183 200.826,133.847 200.013 C 134.753 199.571,135.723 198.934,136.003 198.597 C 136.455 198.052,142.278 194.693,146.315 192.648 C 147.132 192.234,148.996 191.289,150.457 190.548 C 151.919 189.806,153.377 189.200,153.698 189.200 C 154.018 189.200,155.086 188.772,156.069 188.249 C 157.053 187.726,158.919 186.989,160.217 186.612 C 161.514 186.235,163.211 185.606,163.988 185.215 C 164.765 184.823,166.632 184.292,168.137 184.033 C 169.643 183.775,171.533 183.302,172.337 182.983 C 173.142 182.664,175.502 182.041,177.582 181.599 C 183.180 180.410,183.291 179.969,178.400 178.353 C 176.970 177.880,175.620 177.354,175.400 177.185 C 175.180 177.015,173.989 176.583,172.754 176.225 C 170.077 175.450,160.337 170.470,159.801 169.602 C 159.661 169.375,158.883 168.845,158.073 168.424 C 154.867 166.760,146.617 159.010,142.933 154.200 C 141.138 151.857,136.399 144.796,136.406 144.475 C 136.409 144.324,135.787 142.940,135.023 141.400 C 132.912 137.148,131.669 133.841,130.361 129.000 C 129.707 126.580,128.959 123.880,128.698 123.000 C 127.710 119.666,128.047 100.283,129.153 96.800 C 129.677 95.150,130.422 92.450,130.810 90.800 C 131.584 87.508,132.890 84.098,135.023 79.800 C 135.787 78.260,136.409 76.848,136.406 76.663 C 136.403 76.478,136.770 75.848,137.223 75.263 C 137.675 74.678,138.802 73.014,139.727 71.564 C 142.633 67.010,150.753 58.050,154.200 55.594 C 159.540 51.789,164.967 48.296,166.000 48.000 C 166.658 47.811,167.694 47.302,168.302 46.869 C 168.911 46.436,170.504 45.722,171.844 45.283 C 173.183 44.843,174.809 44.209,175.457 43.874 C 176.104 43.539,177.768 43.060,179.153 42.809 C 180.538 42.557,182.862 41.984,184.316 41.535 C 190.067 39.759,205.392 39.553,211.200 41.174 " stroke="none" fill="#aec6e0" fill-rule="evenodd"></path><path id="path3" d="M189.580 40.384 C 188.139 40.568,185.770 41.086,184.316 41.535 C 182.862 41.984,180.538 42.557,179.153 42.809 C 177.768 43.060,176.104 43.539,175.457 43.874 C 174.809 44.209,173.183 44.843,171.844 45.283 C 170.504 45.722,168.911 46.436,168.302 46.869 C 167.694 47.302,166.658 47.811,166.000 48.000 C 164.967 48.296,159.540 51.789,154.200 55.594 C 150.753 58.050,142.633 67.010,139.727 71.564 C 138.802 73.014,137.675 74.678,137.223 75.263 C 136.770 75.848,136.403 76.478,136.406 76.663 C 136.409 76.848,135.787 78.260,135.023 79.800 C 132.890 84.098,131.584 87.508,130.810 90.800 C 130.422 92.450,129.677 95.150,129.153 96.800 C 128.047 100.283,127.710 119.666,128.698 123.000 C 128.959 123.880,129.707 126.580,130.361 129.000 C 131.669 133.841,132.912 137.148,135.023 141.400 C 135.787 142.940,136.409 144.324,136.406 144.475 C 136.399 144.796,141.138 151.857,142.933 154.200 C 146.617 159.010,154.867 166.760,158.073 168.424 C 158.883 168.845,159.661 169.375,159.801 169.602 C 160.337 170.470,170.077 175.450,172.754 176.225 C 173.989 176.583,175.180 177.015,175.400 177.185 C 175.620 177.354,176.970 177.880,178.400 178.353 C 183.291 179.969,183.180 180.410,177.582 181.599 C 175.502 182.041,173.142 182.664,172.337 182.983 C 171.533 183.302,169.643 183.775,168.137 184.033 C 166.632 184.292,164.765 184.823,163.988 185.215 C 163.211 185.606,161.514 186.235,160.217 186.612 C 158.919 186.989,157.053 187.726,156.069 188.249 C 155.086 188.772,154.018 189.200,153.698 189.200 C 153.377 189.200,151.919 189.806,150.457 190.548 C 148.996 191.289,147.132 192.234,146.315 192.648 C 142.278 194.693,136.455 198.052,136.003 198.597 C 135.723 198.934,134.753 199.571,133.847 200.013 C 132.183 200.826,130.044 202.313,125.814 205.600 C 124.540 206.590,123.116 207.662,122.649 207.983 C 121.374 208.859,114.565 215.063,111.817 217.853 C 106.831 222.914,104.653 225.235,103.839 226.355 C 103.377 226.990,101.561 229.285,99.803 231.455 C 98.045 233.625,96.170 236.030,95.636 236.800 C 92.138 241.847,88.563 247.281,87.659 248.923 C 87.076 249.981,86.016 251.871,85.301 253.123 C 84.587 254.375,83.538 256.382,82.970 257.582 C 82.402 258.782,81.616 260.222,81.224 260.782 C 80.832 261.342,80.282 262.520,80.002 263.400 C 79.721 264.280,79.087 265.720,78.591 266.600 C 78.096 267.480,77.386 269.143,77.015 270.295 C 76.643 271.448,76.178 272.490,75.982 272.611 C 75.785 272.733,75.241 274.130,74.773 275.716 C 74.305 277.302,73.588 279.148,73.179 279.818 C 72.770 280.489,72.310 281.839,72.158 282.818 C 72.005 283.798,71.381 285.860,70.771 287.400 C 70.162 288.940,69.453 291.369,69.196 292.797 C 68.940 294.226,68.466 296.026,68.143 296.797 C 67.820 297.569,67.205 300.270,66.774 302.800 C 66.344 305.330,65.636 308.750,65.201 310.400 C 64.737 312.161,64.216 316.188,63.941 320.150 C 63.383 328.175,63.423 328.300,67.494 331.400 C 68.939 332.500,70.720 333.911,71.453 334.535 C 72.185 335.159,73.318 336.059,73.971 336.535 C 83.370 343.393,85.358 344.736,90.736 347.861 C 92.571 348.928,94.551 350.176,95.136 350.636 C 95.721 351.096,96.740 351.656,97.400 351.881 C 98.060 352.106,99.490 352.854,100.578 353.545 C 101.666 354.235,102.750 354.800,102.985 354.800 C 103.221 354.800,104.041 355.221,104.807 355.735 C 105.573 356.249,106.830 356.885,107.600 357.148 C 108.370 357.412,109.651 358.058,110.446 358.584 C 111.242 359.110,112.682 359.750,113.646 360.007 C 114.611 360.263,115.940 360.803,116.600 361.207 C 117.915 362.011,121.616 363.483,126.644 365.200 C 128.429 365.810,130.319 366.586,130.844 366.925 C 131.370 367.265,132.960 367.749,134.378 368.003 C 135.796 368.256,137.661 368.823,138.523 369.263 C 139.384 369.702,141.374 370.324,142.944 370.645 C 144.515 370.965,146.880 371.574,148.200 371.998 C 149.520 372.422,152.310 373.055,154.400 373.406 C 156.490 373.756,159.370 374.383,160.800 374.799 C 162.230 375.215,165.560 375.748,168.200 375.984 C 170.840 376.220,175.520 376.815,178.600 377.307 C 186.959 378.640,212.966 378.647,221.400 377.317 C 224.480 376.832,229.160 376.236,231.800 375.992 C 234.440 375.749,237.770 375.211,239.200 374.796 C 240.630 374.382,243.510 373.756,245.600 373.406 C 247.690 373.055,250.480 372.417,251.800 371.987 C 253.120 371.557,255.280 371.007,256.600 370.765 C 257.920 370.522,259.990 369.911,261.200 369.405 C 262.410 368.900,264.480 368.266,265.800 367.997 C 267.120 367.728,268.897 367.153,269.749 366.721 C 270.600 366.288,272.490 365.518,273.949 365.010 C 279.301 363.144,282.040 362.056,283.398 361.254 C 284.162 360.803,285.554 360.228,286.490 359.976 C 287.427 359.724,288.659 359.185,289.229 358.779 C 289.799 358.373,291.241 357.658,292.433 357.189 C 293.625 356.720,294.870 356.111,295.200 355.834 C 295.530 355.558,296.430 355.093,297.200 354.802 C 297.970 354.511,299.140 353.878,299.800 353.397 C 300.460 352.915,301.661 352.305,302.468 352.040 C 303.275 351.776,304.165 351.284,304.444 350.947 C 304.724 350.610,305.953 349.804,307.176 349.155 C 308.399 348.506,310.210 347.448,311.200 346.804 C 312.190 346.160,313.927 345.041,315.061 344.316 C 318.282 342.258,322.729 339.136,324.627 337.600 C 325.578 336.830,327.193 335.570,328.217 334.800 C 332.565 331.529,337.835 327.059,338.286 326.261 C 339.274 324.509,338.715 316.616,337.203 311.000 C 336.789 309.460,336.258 306.562,336.024 304.560 C 335.790 302.558,335.229 299.858,334.778 298.560 C 334.326 297.262,333.675 294.850,333.331 293.200 C 332.986 291.550,332.359 289.320,331.936 288.244 C 331.513 287.168,330.974 285.385,330.737 284.281 C 330.501 283.178,329.788 281.178,329.154 279.837 C 328.520 278.497,328.000 277.030,328.000 276.577 C 328.000 276.124,327.371 274.504,326.601 272.977 C 325.832 271.450,325.202 269.972,325.201 269.694 C 325.200 269.200,320.128 258.393,318.962 256.400 C 318.641 255.850,317.798 254.349,317.089 253.064 C 314.728 248.783,314.488 248.371,313.498 246.881 C 312.957 246.066,312.173 244.834,311.757 244.143 C 310.200 241.557,306.215 235.758,305.200 234.600 C 304.621 233.940,303.890 233.015,303.574 232.544 C 296.299 221.699,277.025 204.424,263.830 196.920 C 262.746 196.304,260.856 195.229,259.630 194.532 C 257.430 193.281,256.938 193.032,252.200 190.781 C 247.393 188.497,244.434 187.267,242.154 186.604 C 240.872 186.231,239.165 185.590,238.360 185.180 C 237.555 184.769,235.840 184.261,234.548 184.051 C 233.257 183.841,230.850 183.219,229.200 182.668 C 227.550 182.117,225.120 181.549,223.800 181.407 C 220.159 181.014,217.200 180.383,217.200 180.000 C 217.200 179.496,222.733 176.542,224.606 176.045 C 232.695 173.902,247.362 162.948,253.800 154.241 C 254.900 152.754,256.400 150.720,257.133 149.721 C 257.866 148.723,259.419 146.082,260.584 143.853 C 261.749 141.624,262.993 139.260,263.349 138.600 C 263.704 137.940,263.998 137.040,264.001 136.600 C 264.005 136.160,264.473 134.810,265.043 133.600 C 265.612 132.390,266.414 129.780,266.825 127.800 C 267.236 125.820,267.845 122.940,268.179 121.400 C 269.023 117.509,269.023 103.691,268.179 99.800 C 267.845 98.260,267.236 95.380,266.825 93.400 C 266.414 91.420,265.612 88.810,265.043 87.600 C 264.473 86.390,264.005 85.040,264.001 84.600 C 263.998 84.160,263.700 83.260,263.339 82.600 C 262.979 81.940,261.704 79.516,260.506 77.212 C 259.309 74.909,257.805 72.428,257.165 71.699 C 256.524 70.969,256.000 70.230,256.000 70.056 C 256.000 68.875,245.671 57.674,242.801 55.742 C 242.031 55.224,240.230 53.906,238.800 52.813 C 237.370 51.721,236.052 50.821,235.872 50.814 C 235.692 50.806,234.745 50.250,233.767 49.578 C 232.790 48.905,231.408 48.155,230.695 47.909 C 229.983 47.664,228.770 47.058,228.000 46.562 C 227.230 46.066,225.791 45.447,224.802 45.188 C 223.813 44.929,222.373 44.396,221.602 44.005 C 220.831 43.614,218.850 43.005,217.200 42.652 C 215.550 42.299,212.850 41.634,211.200 41.174 C 207.828 40.233,194.565 39.749,189.580 40.384 M207.928 41.777 C 210.057 42.315,213.445 43.017,215.455 43.339 C 217.466 43.660,219.536 44.189,220.055 44.515 C 220.575 44.841,222.260 45.504,223.800 45.988 C 225.340 46.472,226.870 47.105,227.200 47.394 C 227.530 47.684,228.430 48.095,229.200 48.309 C 229.970 48.522,231.563 49.350,232.740 50.148 C 233.917 50.947,235.040 51.600,235.236 51.600 C 235.431 51.600,236.691 52.455,238.035 53.500 C 239.378 54.545,241.114 55.823,241.892 56.339 C 244.860 58.311,255.600 69.913,255.600 71.147 C 255.600 71.342,255.884 71.738,256.231 72.026 C 256.578 72.314,257.294 73.402,257.822 74.444 C 258.350 75.486,259.236 77.007,259.791 77.825 C 260.346 78.643,260.800 79.611,260.800 79.978 C 260.800 80.344,261.348 81.508,262.019 82.565 C 262.689 83.622,263.397 85.322,263.593 86.343 C 263.788 87.364,264.309 89.012,264.751 90.005 C 268.653 98.782,268.585 122.025,264.628 131.567 C 264.119 132.795,263.578 134.490,263.427 135.334 C 263.275 136.177,262.641 137.707,262.018 138.734 C 261.395 139.760,260.764 141.173,260.617 141.872 C 260.469 142.572,260.076 143.371,259.743 143.647 C 259.410 143.924,258.706 145.002,258.178 146.044 C 257.103 148.165,255.504 150.693,254.664 151.600 C 254.358 151.930,253.250 153.280,252.202 154.600 C 249.417 158.107,246.187 161.382,242.936 163.997 C 241.361 165.264,239.831 166.506,239.536 166.757 C 238.402 167.723,236.115 169.168,234.100 170.192 C 232.945 170.779,232.000 171.412,232.000 171.598 C 232.000 171.785,231.325 172.153,230.500 172.417 C 229.675 172.680,228.087 173.409,226.970 174.037 C 225.854 174.665,224.054 175.370,222.970 175.603 C 220.810 176.069,214.757 179.128,214.506 179.881 C 214.210 180.770,216.809 181.624,221.504 182.181 C 224.087 182.487,226.860 183.018,227.666 183.360 C 228.472 183.702,230.452 184.187,232.066 184.436 C 233.680 184.686,235.851 185.321,236.891 185.848 C 237.932 186.374,239.728 187.007,240.884 187.255 C 242.039 187.503,243.978 188.201,245.192 188.807 C 246.406 189.413,248.120 190.132,249.000 190.405 C 249.880 190.678,250.870 191.126,251.200 191.400 C 251.530 191.674,252.520 192.129,253.400 192.410 C 254.280 192.691,255.556 193.343,256.236 193.859 C 256.915 194.375,258.057 195.001,258.773 195.250 C 259.489 195.500,260.939 196.266,261.996 196.952 C 263.053 197.638,264.841 198.740,265.969 199.400 C 268.123 200.661,270.180 202.088,274.617 205.400 C 276.090 206.500,277.679 207.667,278.148 207.993 C 279.389 208.856,285.729 214.474,289.172 217.762 C 292.813 221.238,299.994 229.471,304.557 235.400 C 306.032 237.315,310.507 243.900,311.600 245.761 C 313.114 248.340,314.089 249.919,315.293 251.744 C 315.894 252.655,316.389 253.607,316.393 253.860 C 316.397 254.113,317.027 255.251,317.792 256.389 C 318.558 257.527,319.369 259.144,319.595 259.982 C 319.821 260.821,320.251 261.711,320.552 261.960 C 320.852 262.209,321.502 263.535,321.995 264.906 C 322.489 266.278,323.154 267.697,323.472 268.060 C 323.791 268.423,324.283 269.593,324.565 270.660 C 324.848 271.727,325.647 273.660,326.340 274.956 C 327.033 276.252,327.600 277.789,327.600 278.372 C 327.600 278.954,327.966 280.144,328.413 281.015 C 328.860 281.887,329.591 284.024,330.038 285.765 C 330.485 287.506,331.175 289.576,331.571 290.365 C 331.967 291.154,332.493 293.183,332.739 294.874 C 332.986 296.565,333.650 299.175,334.216 300.674 C 334.899 302.483,335.370 304.818,335.617 307.619 C 335.822 309.939,336.258 312.729,336.586 313.818 C 338.880 321.441,338.271 325.368,334.294 328.607 C 332.702 329.903,331.040 331.277,330.600 331.659 C 327.907 334.000,325.692 335.689,320.600 339.283 C 319.720 339.904,318.015 341.130,316.811 342.006 C 315.607 342.883,314.511 343.600,314.376 343.600 C 314.242 343.600,312.369 344.770,310.215 346.200 C 308.061 347.630,306.058 348.800,305.763 348.800 C 305.469 348.800,304.637 349.314,303.914 349.943 C 303.191 350.571,301.928 351.304,301.106 351.572 C 300.284 351.839,299.505 352.229,299.376 352.439 C 299.247 352.648,297.948 353.360,296.489 354.021 C 295.030 354.683,293.558 355.472,293.218 355.775 C 292.878 356.078,291.843 356.527,290.918 356.773 C 289.993 357.020,288.715 357.659,288.079 358.195 C 287.442 358.731,286.072 359.360,285.035 359.592 C 283.998 359.825,282.746 360.279,282.253 360.602 C 281.760 360.925,280.314 361.548,279.038 361.987 C 277.763 362.426,276.152 363.129,275.460 363.550 C 274.767 363.971,273.390 364.446,272.400 364.606 C 271.410 364.767,269.543 365.429,268.252 366.079 C 266.961 366.728,264.822 367.434,263.499 367.647 C 262.176 367.860,260.601 368.289,260.000 368.600 C 259.399 368.911,256.948 369.610,254.554 370.154 C 252.159 370.698,249.565 371.412,248.789 371.740 C 248.013 372.068,245.635 372.531,243.504 372.768 C 241.373 373.006,238.228 373.653,236.515 374.207 C 234.089 374.991,231.983 375.299,227.000 375.599 C 223.480 375.810,218.818 376.252,216.641 376.581 C 208.306 377.838,188.202 377.738,182.234 376.410 C 181.335 376.210,177.450 375.856,173.600 375.623 C 168.087 375.289,165.945 374.989,163.517 374.210 C 161.821 373.666,158.761 373.028,156.717 372.794 C 154.673 372.559,152.010 372.017,150.800 371.590 C 149.590 371.163,146.918 370.446,144.862 369.997 C 142.806 369.548,140.625 368.923,140.015 368.608 C 139.406 368.293,137.820 367.860,136.491 367.646 C 135.163 367.432,133.024 366.719,131.738 366.062 C 130.452 365.405,128.590 364.741,127.600 364.585 C 126.610 364.430,125.350 363.990,124.800 363.608 C 124.250 363.225,122.810 362.592,121.600 362.201 C 120.390 361.810,118.591 361.064,117.603 360.545 C 116.615 360.025,115.439 359.600,114.990 359.600 C 114.541 359.600,113.209 358.979,112.030 358.219 C 110.851 357.460,109.328 356.720,108.644 356.575 C 107.960 356.430,107.130 356.085,106.800 355.809 C 106.025 355.161,98.353 351.200,97.872 351.200 C 97.670 351.200,96.891 350.660,96.139 350.000 C 95.387 349.340,94.538 348.800,94.252 348.800 C 93.965 348.800,91.969 347.630,89.815 346.200 C 87.661 344.770,85.759 343.600,85.587 343.600 C 85.416 343.600,84.522 342.970,83.600 342.200 C 82.678 341.430,81.778 340.800,81.600 340.800 C 81.422 340.800,80.544 340.215,79.649 339.500 C 78.754 338.785,77.105 337.570,75.984 336.800 C 73.594 335.157,66.134 329.039,65.052 327.834 C 63.962 326.620,64.384 318.475,65.799 313.400 C 66.351 311.420,67.003 308.000,67.248 305.800 C 67.493 303.600,68.015 300.983,68.408 299.984 C 68.801 298.985,69.519 296.286,70.003 293.986 C 70.487 291.686,71.199 289.173,71.585 288.402 C 71.971 287.631,72.398 286.147,72.535 285.105 C 72.671 284.063,73.302 282.173,73.937 280.905 C 74.571 279.637,75.220 277.880,75.379 277.000 C 75.537 276.120,76.015 274.833,76.441 274.140 C 76.867 273.448,77.568 271.854,78.000 270.600 C 78.432 269.346,79.125 267.752,79.541 267.060 C 79.957 266.367,80.423 265.260,80.577 264.600 C 80.731 263.940,81.363 262.590,81.983 261.600 C 82.602 260.610,83.322 259.128,83.583 258.306 C 83.845 257.484,84.229 256.706,84.438 256.576 C 84.647 256.447,85.366 255.320,86.035 254.071 C 88.573 249.337,89.481 247.753,90.525 246.244 C 91.116 245.388,91.600 244.452,91.600 244.164 C 91.600 243.876,91.847 243.496,92.149 243.320 C 92.450 243.144,93.395 241.941,94.249 240.646 C 101.205 230.090,116.479 213.441,123.849 208.383 C 124.316 208.062,125.740 206.990,127.014 206.000 C 131.049 202.865,133.361 201.239,134.673 200.617 C 135.373 200.284,136.061 199.825,136.202 199.597 C 136.343 199.369,137.491 198.661,138.753 198.024 C 140.015 197.387,141.275 196.592,141.552 196.258 C 141.829 195.925,142.572 195.538,143.204 195.399 C 143.837 195.260,145.074 194.624,145.955 193.986 C 146.836 193.348,148.062 192.707,148.679 192.562 C 149.295 192.416,150.367 191.957,151.060 191.541 C 151.752 191.125,153.346 190.432,154.600 190.000 C 155.854 189.568,157.448 188.871,158.140 188.451 C 158.833 188.031,160.349 187.489,161.509 187.246 C 162.668 187.003,164.502 186.357,165.582 185.809 C 166.663 185.261,168.594 184.695,169.874 184.551 C 171.153 184.407,173.100 183.961,174.200 183.561 C 175.300 183.161,177.438 182.639,178.950 182.401 C 187.238 181.098,185.768 179.074,174.129 175.760 C 172.990 175.436,170.861 174.547,169.400 173.785 C 167.938 173.023,166.507 172.400,166.220 172.400 C 165.933 172.400,165.462 172.115,165.173 171.767 C 164.884 171.419,163.636 170.624,162.400 170.000 C 161.164 169.376,159.916 168.581,159.627 168.233 C 159.338 167.885,158.939 167.600,158.739 167.600 C 157.999 167.600,150.493 161.361,148.040 158.708 C 145.559 156.024,144.450 154.706,143.400 153.195 C 142.740 152.245,141.615 150.686,140.900 149.731 C 140.185 148.775,139.600 147.839,139.600 147.651 C 139.600 147.462,138.880 146.249,138.001 144.954 C 137.121 143.659,136.401 142.351,136.401 142.047 C 136.400 141.743,136.034 140.902,135.587 140.179 C 135.140 139.455,134.350 137.634,133.831 136.132 C 133.312 134.629,132.612 132.881,132.274 132.248 C 131.937 131.614,131.537 130.174,131.387 129.048 C 131.236 127.921,130.593 124.930,129.957 122.400 C 128.326 115.902,128.259 105.826,129.807 99.751 C 130.361 97.578,131.005 94.540,131.238 93.000 C 131.471 91.460,131.980 89.570,132.369 88.800 C 132.758 88.030,133.394 86.410,133.783 85.200 C 134.172 83.990,134.920 82.248,135.445 81.329 C 135.970 80.410,136.400 79.402,136.400 79.089 C 136.400 78.776,136.948 77.763,137.618 76.839 C 138.288 75.914,139.014 74.690,139.231 74.119 C 139.448 73.548,140.077 72.522,140.628 71.840 C 141.179 71.158,142.551 69.340,143.678 67.800 C 146.508 63.930,152.757 57.801,156.649 55.078 C 158.436 53.828,160.123 52.534,160.398 52.202 C 160.673 51.871,161.128 51.600,161.409 51.600 C 161.690 51.600,162.838 50.982,163.960 50.227 C 165.082 49.472,166.405 48.733,166.900 48.586 C 167.395 48.438,168.352 48.002,169.026 47.616 C 169.700 47.230,171.500 46.508,173.026 46.012 C 174.552 45.515,176.216 44.848,176.725 44.529 C 177.234 44.210,179.574 43.607,181.925 43.190 C 184.276 42.772,187.640 42.080,189.400 41.652 C 194.378 40.440,202.855 40.497,207.928 41.777 " stroke="none" fill="#94b4d4" fill-rule="evenodd"></path><path id="path4" d="M184.400 39.594 C 183.410 39.779,182.060 40.206,181.400 40.542 C 180.740 40.879,179.057 41.337,177.660 41.561 C 176.209 41.794,174.197 42.489,172.966 43.184 C 171.782 43.853,170.494 44.403,170.106 44.406 C 169.718 44.409,168.950 44.676,168.400 44.999 C 167.850 45.322,166.140 46.227,164.600 47.009 C 161.192 48.741,157.936 50.757,157.021 51.700 C 156.648 52.085,156.182 52.400,155.985 52.400 C 155.630 52.400,150.356 56.934,147.507 59.690 C 146.187 60.966,142.217 65.566,139.472 69.000 C 138.944 69.660,138.196 70.830,137.809 71.600 C 137.423 72.370,136.788 73.360,136.399 73.800 C 136.010 74.240,135.559 75.050,135.396 75.600 C 135.233 76.150,134.580 77.377,133.946 78.326 C 133.311 79.276,132.603 80.893,132.373 81.920 C 132.143 82.947,131.702 84.067,131.393 84.408 C 130.550 85.339,129.734 87.557,129.411 89.791 C 129.253 90.885,128.736 92.505,128.262 93.391 C 127.011 95.726,126.910 125.278,128.145 127.600 C 128.554 128.370,129.132 130.226,129.429 131.724 C 129.726 133.223,130.516 135.405,131.185 136.573 C 131.853 137.741,132.400 139.035,132.401 139.449 C 132.402 139.862,133.030 141.241,133.797 142.513 C 134.564 143.785,135.301 145.262,135.435 145.796 C 135.569 146.330,135.941 146.985,136.262 147.252 C 136.583 147.518,137.080 148.291,137.365 148.968 C 137.651 149.646,138.535 151.010,139.331 152.000 C 140.127 152.990,141.458 154.664,142.289 155.719 C 146.485 161.049,156.891 170.366,159.900 171.486 C 160.285 171.629,161.230 172.246,162.000 172.857 C 162.770 173.468,164.201 174.250,165.180 174.595 C 166.159 174.939,167.239 175.470,167.580 175.773 C 167.921 176.077,168.962 176.528,169.892 176.776 C 170.823 177.024,172.713 177.761,174.092 178.413 C 175.472 179.066,177.005 179.600,177.500 179.600 C 179.647 179.600,178.141 180.305,175.500 180.535 C 173.729 180.690,171.510 181.235,169.800 181.936 C 168.260 182.567,165.974 183.212,164.721 183.368 C 163.467 183.524,162.027 183.977,161.521 184.374 C 161.014 184.771,159.970 185.220,159.200 185.373 C 157.230 185.763,155.585 186.412,154.269 187.319 C 153.646 187.748,152.443 188.255,151.594 188.446 C 150.746 188.637,149.275 189.313,148.326 189.949 C 147.377 190.584,146.027 191.228,145.328 191.378 C 144.628 191.528,143.839 191.912,143.575 192.230 C 143.311 192.549,142.293 193.164,141.314 193.597 C 140.335 194.030,138.995 194.838,138.337 195.392 C 137.678 195.946,136.923 196.400,136.659 196.400 C 136.395 196.400,135.220 197.120,134.049 198.000 C 132.878 198.880,131.737 199.600,131.515 199.600 C 131.119 199.600,129.954 200.472,126.843 203.100 C 125.996 203.815,125.170 204.400,125.007 204.400 C 124.844 204.400,123.786 205.153,122.656 206.074 C 119.834 208.371,119.275 208.858,117.148 210.858 C 116.129 211.816,113.744 214.040,111.848 215.800 C 109.951 217.560,108.400 219.229,108.400 219.510 C 108.400 219.790,107.950 220.191,107.400 220.400 C 106.850 220.609,106.400 220.927,106.400 221.107 C 106.400 221.286,105.224 222.686,103.786 224.217 C 102.349 225.748,100.904 227.495,100.576 228.100 C 100.248 228.705,99.817 229.200,99.618 229.200 C 99.420 229.200,98.674 230.100,97.961 231.200 C 97.248 232.300,96.528 233.200,96.360 233.200 C 96.191 233.200,95.938 233.565,95.797 234.011 C 95.655 234.457,94.833 235.638,93.970 236.635 C 93.106 237.633,92.397 238.663,92.393 238.924 C 92.389 239.186,91.952 239.811,91.422 240.314 C 90.891 240.817,90.069 242.032,89.593 243.014 C 89.118 243.996,88.587 244.800,88.413 244.800 C 88.239 244.800,87.858 245.377,87.566 246.083 C 87.273 246.789,86.441 248.247,85.717 249.323 C 84.993 250.400,84.400 251.508,84.400 251.785 C 84.400 252.063,83.870 252.957,83.222 253.772 C 82.574 254.588,81.832 255.917,81.573 256.727 C 81.314 257.537,80.787 258.560,80.403 259.000 C 80.019 259.440,79.578 260.340,79.422 261.000 C 79.267 261.660,78.613 263.057,77.970 264.105 C 77.327 265.153,76.611 266.858,76.379 267.895 C 76.146 268.932,75.810 269.874,75.632 269.990 C 75.089 270.342,73.715 273.314,73.410 274.800 C 73.251 275.570,72.839 276.645,72.493 277.189 C 72.148 277.733,71.628 279.309,71.338 280.691 C 71.049 282.073,70.353 284.108,69.793 285.213 C 69.227 286.330,68.623 288.437,68.432 289.958 C 68.243 291.462,67.813 293.122,67.475 293.647 C 66.642 294.944,65.720 298.466,65.407 301.550 C 65.265 302.952,64.804 304.974,64.383 306.043 C 63.908 307.247,63.532 309.472,63.393 311.893 C 63.269 314.042,62.790 318.159,62.327 321.043 C 61.159 328.316,61.675 329.301,69.741 335.200 C 70.794 335.970,72.464 337.275,73.452 338.100 C 74.440 338.925,75.427 339.600,75.644 339.600 C 75.862 339.600,76.670 340.212,77.440 340.960 C 78.210 341.708,79.371 342.539,80.020 342.808 C 80.669 343.077,81.200 343.460,81.200 343.658 C 81.200 343.857,81.653 344.192,82.207 344.403 C 82.762 344.613,83.977 345.337,84.907 346.010 C 88.089 348.311,91.400 350.398,91.869 350.399 C 92.127 350.400,92.847 350.825,93.469 351.345 C 94.091 351.865,95.046 352.430,95.591 352.601 C 96.136 352.772,97.461 353.516,98.536 354.256 C 99.610 354.995,100.805 355.600,101.190 355.600 C 101.575 355.600,102.569 356.140,103.399 356.799 C 104.229 357.459,105.642 358.196,106.540 358.438 C 107.437 358.679,108.592 359.207,109.105 359.611 C 109.618 360.014,110.601 360.468,111.290 360.620 C 111.978 360.771,113.369 361.403,114.379 362.025 C 115.389 362.647,117.057 363.344,118.085 363.574 C 119.113 363.805,120.604 364.434,121.397 364.972 C 122.191 365.511,123.855 366.162,125.096 366.420 C 126.337 366.677,127.813 367.218,128.376 367.621 C 128.939 368.025,130.473 368.546,131.784 368.779 C 133.095 369.013,135.038 369.659,136.102 370.215 C 137.219 370.799,139.218 371.375,140.834 371.578 C 142.373 371.771,143.866 372.123,144.151 372.359 C 145.110 373.155,148.002 373.971,151.513 374.435 C 153.431 374.689,155.860 375.234,156.911 375.647 C 157.964 376.060,160.389 376.501,162.311 376.629 C 166.347 376.897,168.861 377.321,173.600 378.531 C 176.898 379.374,177.691 379.400,200.000 379.393 L 223.000 379.385 228.400 378.133 C 231.370 377.443,235.451 376.775,237.468 376.646 C 239.647 376.508,241.942 376.096,243.119 375.632 C 244.208 375.203,246.248 374.735,247.650 374.593 C 250.734 374.280,254.256 373.358,255.553 372.525 C 256.078 372.187,257.738 371.757,259.242 371.568 C 260.776 371.376,262.871 370.772,264.010 370.195 C 265.128 369.628,267.068 368.983,268.321 368.760 C 269.575 368.537,271.056 368.028,271.614 367.629 C 272.172 367.230,273.598 366.695,274.784 366.441 C 275.970 366.186,277.854 365.466,278.970 364.840 C 280.087 364.214,281.641 363.606,282.425 363.488 C 283.208 363.371,284.648 362.744,285.625 362.095 C 286.601 361.445,288.021 360.796,288.781 360.651 C 289.540 360.506,290.530 360.061,290.981 359.662 C 291.431 359.263,292.557 358.721,293.482 358.457 C 294.407 358.194,295.709 357.520,296.376 356.959 C 297.043 356.398,298.253 355.755,299.066 355.531 C 299.878 355.307,301.186 354.619,301.971 354.002 C 302.757 353.386,303.850 352.748,304.400 352.586 C 304.950 352.423,305.909 351.865,306.531 351.345 C 307.153 350.825,307.871 350.400,308.127 350.400 C 308.556 350.400,309.503 349.817,314.346 346.570 C 315.306 345.927,316.671 345.040,317.380 344.600 C 320.031 342.954,322.239 341.451,323.490 340.441 C 325.268 339.006,327.758 337.077,330.600 334.933 C 331.920 333.938,333.270 332.873,333.600 332.566 C 333.930 332.260,335.409 330.972,336.888 329.705 C 339.493 327.470,341.007 324.505,340.204 323.207 C 340.093 323.028,339.824 320.028,339.606 316.540 C 339.297 311.594,338.982 309.496,338.176 307.000 C 337.607 305.240,336.960 302.180,336.739 300.200 C 336.504 298.097,336.038 296.101,335.617 295.400 C 335.221 294.740,334.708 292.883,334.477 291.273 C 334.233 289.571,333.543 287.280,332.829 285.798 C 332.153 284.397,331.600 282.739,331.600 282.114 C 331.600 281.489,330.998 279.722,330.263 278.188 C 329.528 276.653,328.793 274.679,328.629 273.799 C 328.466 272.920,328.093 271.930,327.801 271.600 C 327.508 271.270,326.879 269.837,326.402 268.416 C 325.925 266.995,325.174 265.325,324.732 264.705 C 324.290 264.084,323.745 262.911,323.520 262.096 C 323.295 261.282,322.617 259.892,322.014 259.008 C 321.410 258.123,320.700 256.739,320.437 255.932 C 320.174 255.125,319.698 254.248,319.380 253.983 C 319.061 253.718,318.800 253.275,318.800 252.997 C 318.800 252.719,318.080 251.413,317.200 250.095 C 316.320 248.777,315.600 247.523,315.600 247.307 C 315.600 247.091,314.999 246.124,314.265 245.158 C 313.530 244.191,312.675 242.927,312.365 242.349 C 311.366 240.490,308.953 237.017,308.266 236.451 C 307.900 236.149,307.600 235.685,307.600 235.421 C 307.600 235.156,307.139 234.506,306.575 233.977 C 306.011 233.447,305.184 232.422,304.737 231.698 C 303.782 230.153,303.451 229.742,299.350 225.000 C 293.431 218.155,281.831 207.296,276.800 203.890 C 276.250 203.517,274.637 202.310,273.216 201.206 C 271.795 200.103,270.480 199.200,270.292 199.200 C 270.105 199.200,269.127 198.570,268.118 197.800 C 267.110 197.030,266.048 196.400,265.758 196.400 C 265.468 196.400,264.909 196.061,264.516 195.646 C 263.722 194.809,260.861 193.200,260.168 193.200 C 259.924 193.200,259.407 192.850,259.021 192.423 C 258.634 191.995,257.751 191.524,257.059 191.375 C 256.366 191.226,255.018 190.581,254.061 189.940 C 253.105 189.299,251.440 188.586,250.361 188.354 C 249.283 188.123,248.400 187.773,248.400 187.577 C 248.400 187.012,246.230 186.039,243.920 185.568 C 242.754 185.330,241.338 184.810,240.774 184.411 C 240.210 184.012,238.552 183.499,237.090 183.272 C 235.628 183.044,233.494 182.387,232.347 181.811 C 230.843 181.056,229.365 180.697,227.032 180.523 C 221.297 180.095,221.185 178.472,226.774 176.808 C 228.277 176.360,229.721 175.737,229.981 175.423 C 230.242 175.108,230.990 174.734,231.643 174.591 C 232.296 174.447,233.635 173.715,234.619 172.965 C 235.602 172.214,236.553 171.600,236.731 171.600 C 237.065 171.600,239.893 169.606,243.369 166.921 C 248.914 162.638,258.506 151.709,259.682 148.335 C 259.900 147.711,260.251 147.200,260.462 147.200 C 260.673 147.200,261.472 145.895,262.238 144.300 C 263.004 142.705,263.891 140.950,264.209 140.400 C 264.528 139.850,264.794 139.040,264.801 138.600 C 264.809 138.160,265.358 136.815,266.021 135.610 C 266.755 134.279,267.374 132.393,267.600 130.800 C 267.804 129.359,268.255 127.612,268.601 126.919 C 271.144 121.821,271.164 99.359,268.630 94.458 C 268.285 93.791,267.840 92.096,267.641 90.690 C 267.442 89.285,266.748 87.069,266.098 85.767 C 265.449 84.465,264.798 82.779,264.652 82.019 C 264.507 81.260,264.053 80.270,263.643 79.819 C 263.234 79.369,262.686 78.336,262.426 77.525 C 262.167 76.714,261.560 75.556,261.077 74.952 C 260.595 74.349,259.840 73.188,259.400 72.374 C 256.197 66.445,247.002 56.538,240.675 52.200 C 236.712 49.483,234.727 48.254,232.600 47.201 C 231.280 46.548,229.573 45.650,228.806 45.207 C 228.040 44.763,227.029 44.400,226.560 44.400 C 226.091 44.400,225.245 44.036,224.680 43.591 C 223.418 42.599,221.219 41.805,218.693 41.431 C 217.644 41.276,215.934 40.758,214.893 40.280 C 212.844 39.340,188.674 38.797,184.400 39.594 M212.000 40.577 C 213.210 40.929,215.820 41.636,217.800 42.149 C 219.780 42.662,222.120 43.446,223.000 43.892 C 223.880 44.338,225.179 44.827,225.887 44.980 C 226.594 45.133,227.785 45.673,228.532 46.180 C 229.280 46.687,230.524 47.311,231.296 47.566 C 233.165 48.183,241.143 53.526,244.400 56.343 C 250.944 62.003,254.329 65.999,259.489 74.161 C 261.266 76.971,264.400 83.353,264.400 84.162 C 264.400 84.527,264.869 85.753,265.443 86.884 C 266.016 88.016,266.807 90.485,267.199 92.371 C 267.591 94.257,268.238 96.970,268.635 98.400 C 269.701 102.234,269.697 118.990,268.630 122.800 C 268.229 124.230,267.595 126.930,267.221 128.800 C 266.846 130.670,266.059 133.139,265.470 134.287 C 264.882 135.434,264.397 136.694,264.392 137.087 C 264.378 138.425,259.283 147.911,256.704 151.400 C 256.216 152.060,255.133 153.523,254.297 154.652 C 251.270 158.738,243.703 165.968,239.652 168.645 C 236.081 171.004,233.736 172.421,231.400 173.630 C 230.080 174.313,228.550 175.125,228.000 175.433 C 227.450 175.742,226.260 176.176,225.355 176.398 C 223.556 176.839,219.129 179.562,219.427 180.044 C 219.529 180.209,220.645 180.460,221.906 180.602 C 226.276 181.093,229.000 181.674,231.195 182.583 C 232.408 183.085,234.371 183.619,235.558 183.770 C 236.745 183.920,238.365 184.373,239.158 184.776 C 239.951 185.180,241.810 185.883,243.289 186.339 C 244.768 186.794,246.402 187.445,246.921 187.785 C 247.439 188.125,248.752 188.666,249.837 188.989 C 250.922 189.311,252.428 190.030,253.183 190.587 C 253.938 191.144,254.814 191.600,255.129 191.600 C 255.444 191.600,256.715 192.180,257.951 192.889 C 260.128 194.137,260.947 194.592,265.100 196.869 C 266.173 197.457,267.295 198.232,267.593 198.592 C 267.892 198.952,268.754 199.504,269.510 199.820 C 270.265 200.136,271.450 200.855,272.142 201.418 C 272.834 201.981,274.210 203.057,275.200 203.810 C 282.522 209.377,286.532 212.863,291.635 218.098 C 298.240 224.875,298.192 224.821,301.381 228.846 C 303.016 230.911,304.770 233.112,305.277 233.737 C 307.064 235.938,312.400 243.780,312.400 244.204 C 312.400 244.358,312.843 245.011,313.385 245.656 C 314.215 246.641,315.645 249.099,319.406 256.000 C 319.706 256.550,320.290 257.720,320.705 258.600 C 321.120 259.480,321.749 260.740,322.104 261.400 C 323.223 263.484,325.513 268.559,325.803 269.600 C 325.957 270.150,326.499 271.325,327.007 272.212 C 327.515 273.099,328.061 274.539,328.220 275.412 C 328.380 276.285,329.004 277.990,329.608 279.200 C 330.212 280.410,330.928 282.480,331.199 283.800 C 331.471 285.120,332.017 286.840,332.415 287.622 C 332.812 288.404,333.346 290.204,333.602 291.622 C 333.859 293.040,334.482 295.386,334.987 296.836 C 335.493 298.286,336.027 300.626,336.174 302.036 C 336.321 303.446,336.964 306.760,337.602 309.400 C 339.736 318.222,339.875 326.215,337.920 327.697 C 337.414 328.081,336.550 328.843,336.000 329.391 C 335.450 329.939,334.433 330.795,333.740 331.294 C 333.047 331.792,330.530 333.730,328.148 335.600 C 323.454 339.283,322.909 339.685,318.884 342.431 C 313.493 346.108,311.861 347.146,307.439 349.710 C 306.007 350.540,304.739 351.375,304.621 351.565 C 304.504 351.756,303.911 352.035,303.304 352.187 C 302.697 352.338,301.660 352.865,301.000 353.358 C 299.682 354.342,287.568 360.400,286.918 360.400 C 286.696 360.400,285.305 361.030,283.828 361.800 C 282.351 362.570,280.839 363.200,280.468 363.200 C 280.097 363.200,278.983 363.631,277.993 364.159 C 277.002 364.686,275.404 365.330,274.443 365.589 C 273.481 365.848,271.753 366.490,270.602 367.016 C 269.452 367.542,267.726 368.098,266.767 368.252 C 265.807 368.405,263.938 369.018,262.611 369.615 C 261.285 370.211,258.953 370.912,257.430 371.173 C 255.906 371.434,254.016 371.919,253.230 372.251 C 252.443 372.583,249.924 373.202,247.631 373.626 C 245.337 374.050,242.187 374.746,240.631 375.172 C 239.074 375.599,235.604 376.140,232.921 376.375 C 230.237 376.610,226.907 377.059,225.521 377.374 C 215.525 379.643,181.673 379.541,173.651 377.218 C 172.908 377.003,170.028 376.628,167.251 376.385 C 164.473 376.141,160.580 375.513,158.600 374.989 C 156.620 374.465,153.432 373.768,151.517 373.441 C 149.601 373.114,147.664 372.648,147.213 372.407 C 146.761 372.165,144.750 371.617,142.743 371.188 C 140.736 370.759,138.173 369.978,137.047 369.453 C 135.921 368.928,134.175 368.380,133.167 368.235 C 132.159 368.090,130.696 367.629,129.916 367.211 C 129.136 366.793,127.441 366.146,126.149 365.774 C 124.857 365.402,122.991 364.671,122.003 364.149 C 121.015 363.627,119.905 363.200,119.536 363.200 C 119.168 363.200,117.679 362.570,116.227 361.800 C 114.776 361.030,113.388 360.400,113.143 360.400 C 112.605 360.400,105.248 356.871,104.400 356.206 C 104.070 355.947,102.959 355.426,101.932 355.047 C 100.904 354.668,99.831 354.078,99.548 353.737 C 99.264 353.395,98.125 352.689,97.016 352.169 C 95.907 351.648,93.830 350.504,92.400 349.627 C 90.970 348.751,88.990 347.595,88.000 347.060 C 87.010 346.524,85.857 345.707,85.438 345.243 C 85.019 344.779,84.487 344.400,84.255 344.400 C 83.856 344.400,80.399 342.118,77.800 340.139 C 75.465 338.361,73.363 336.739,70.200 334.277 C 68.440 332.907,66.411 331.369,65.691 330.859 C 63.269 329.145,62.650 327.247,63.142 323.035 C 63.375 321.036,63.676 317.690,63.810 315.600 C 63.945 313.510,64.397 310.512,64.816 308.939 C 65.234 307.365,65.936 304.078,66.376 301.635 C 66.816 299.191,67.378 296.815,67.624 296.355 C 67.871 295.894,68.420 293.790,68.845 291.677 C 69.270 289.565,69.973 287.234,70.408 286.497 C 70.843 285.760,71.456 283.919,71.772 282.406 C 72.087 280.893,72.612 279.238,72.938 278.728 C 73.263 278.217,73.911 276.548,74.377 275.018 C 74.843 273.488,75.468 271.958,75.766 271.618 C 76.063 271.278,76.594 269.993,76.946 268.763 C 77.298 267.533,77.964 266.045,78.427 265.457 C 78.889 264.869,79.446 263.742,79.664 262.954 C 80.211 260.974,85.908 250.476,89.408 245.000 C 92.510 240.147,95.191 236.334,98.400 232.212 C 99.390 230.940,100.560 229.409,101.000 228.809 C 101.922 227.552,102.502 226.892,106.256 222.832 C 112.821 215.732,122.454 206.915,126.050 204.715 C 126.666 204.338,127.492 203.739,127.885 203.383 C 129.158 202.230,132.934 199.600,133.315 199.600 C 133.518 199.600,134.341 199.098,135.142 198.485 C 136.950 197.102,141.399 194.400,141.867 194.400 C 142.058 194.400,142.891 193.940,143.717 193.379 C 144.544 192.817,145.948 192.101,146.837 191.787 C 147.726 191.473,148.994 190.832,149.655 190.361 C 150.317 189.890,151.689 189.254,152.705 188.948 C 153.721 188.643,154.972 188.117,155.487 187.780 C 156.001 187.443,157.632 186.794,159.111 186.339 C 160.590 185.883,162.449 185.180,163.242 184.776 C 164.035 184.373,165.655 183.920,166.842 183.770 C 168.029 183.619,169.990 183.092,171.200 182.599 C 172.410 182.106,174.120 181.582,175.000 181.436 C 181.323 180.386,181.960 180.019,178.900 179.189 C 177.855 178.905,176.180 178.267,175.178 177.770 C 174.176 177.272,172.376 176.608,171.178 176.293 C 169.980 175.979,168.300 175.244,167.444 174.661 C 166.588 174.077,165.674 173.600,165.413 173.600 C 164.950 173.600,163.210 172.565,159.654 170.174 C 158.694 169.528,157.297 168.626,156.549 168.168 C 152.759 165.850,143.505 156.552,140.656 152.200 C 139.282 150.102,138.510 148.942,137.193 147.000 C 136.596 146.120,135.974 144.950,135.811 144.400 C 135.648 143.850,135.009 142.590,134.391 141.600 C 133.773 140.610,133.065 139.032,132.817 138.094 C 132.569 137.156,132.034 135.806,131.627 135.094 C 131.221 134.382,130.666 132.810,130.394 131.600 C 130.122 130.390,129.438 128.050,128.875 126.400 C 127.866 123.443,127.851 123.223,127.826 111.000 L 127.800 98.600 129.076 94.400 C 129.777 92.090,130.470 89.570,130.615 88.800 C 130.759 88.030,131.212 86.818,131.622 86.106 C 132.031 85.394,132.569 84.044,132.817 83.106 C 133.065 82.168,133.773 80.590,134.391 79.600 C 135.009 78.610,135.633 77.403,135.778 76.918 C 136.075 75.927,141.258 67.942,142.605 66.400 C 145.508 63.077,151.718 56.863,153.543 55.454 C 158.619 51.535,164.661 47.600,165.602 47.600 C 165.956 47.600,166.862 47.144,167.617 46.587 C 168.372 46.030,169.819 45.328,170.832 45.028 C 171.845 44.727,173.377 44.127,174.237 43.694 C 175.097 43.261,177.228 42.593,178.973 42.210 C 180.718 41.827,182.878 41.245,183.773 40.919 C 187.668 39.496,207.461 39.256,212.000 40.577 " stroke="none" fill="#d1dfec" fill-rule="evenodd"></path></g></svg>